<?xml version="1.0" encoding="UTF-8"?>
<svg id="Layer_3" data-name="Layer 3" xmlns="http://www.w3.org/2000/svg" viewBox="0 0 215 215">
  <defs>
    <style>
      .cls-1 {
        fill: #ff5e8f;
      }

      .cls-2 {
        fill: #fff;
        stroke: #ff5e8f;
        stroke-miterlimit: 10;
        stroke-width: 5px;
      }
    </style>
  </defs>
  <path class="cls-1" d="m194.02,100.08c0-20.18-16.36-36.54-36.54-36.54-5.4,0-10.52,1.18-15.14,3.29.1-1.08.16-2.18.16-3.29,0-19.33-15.67-35-35-35s-35,15.67-35,35c0,.62.02,1.24.05,1.85-3.61-1.19-7.46-1.85-11.47-1.85-20.18,0-36.54,16.36-36.54,36.54,0,16.35,10.74,30.19,25.55,34.85-6.73,6.42-10.92,15.47-10.92,25.5,0,19.47,15.79,35.26,35.26,35.26,14.44,0,26.84-8.68,32.3-21.11,5.45,12.43,17.86,21.11,32.3,21.11,19.47,0,35.26-15.79,35.26-35.26,0-9.51-3.77-18.13-9.89-24.48,16.88-3.23,29.63-18.06,29.63-35.88Z"/>
  <g>
    <polygon class="cls-2" points="104.39 142.11 104.39 127.19 85.03 116.08 104.39 104.91 104.39 90.12 61.92 116.08 104.39 142.11"/>
    <polygon class="cls-2" points="111.63 90.12 111.63 104.91 130.99 116.08 111.63 127.19 111.63 142.11 154.09 116.08 111.63 90.12"/>
  </g>
</svg>