<?xml version="1.0" encoding="UTF-8"?>
<svg id="Layer_1" data-name="Layer 1" xmlns="http://www.w3.org/2000/svg" viewBox="0 0 750 215">
  <defs>
    <style>
      .cls-1 {
        fill: #707070;
      }

      .cls-2 {
        fill: #ff5e8f;
      }
    </style>
  </defs>
  <g>
    <g>
      <path class="cls-1" d="m111.1,38.13l-2.76,2.76s-9.08-10.92-24.47-10.66-36.05,14.74-33.68,43.15,26.03,36.15,35.52,35.29c8.95-.82,15.66-3.89,22.5-10.95l2.53,2.73s-11.83,11.44-29.37,11.61-45.54-10.66-45.54-42.07,33.65-51.27,58.87-41.08c10.53,4.25,16.4,9.21,16.4,9.21Z"/>
      <path class="cls-1" d="m141.97,53.65c-16.13,0-29.21,13.08-29.21,29.21s13.08,29.21,29.21,29.21,29.21-13.08,29.21-29.21-13.08-29.21-29.21-29.21Zm.09,54.91c-9.01,0-16.31-11.39-16.31-25.44s7.3-25.44,16.31-25.44,16.31,11.39,16.31,25.44-7.3,25.44-16.31,25.44Z"/>
      <path class="cls-1" d="m223.64,28.04v32.22c-1.82-1.25-4.8-3.06-8.8-4.72-16.71-6.93-39.01,5.84-39.01,27.93s18.55,28.72,30.17,28.6c8.31-.09,14.67-4.08,17.63-6.35v4.59h12.98V28.04h-12.98Zm-14.38,80.52c-6.29.59-19.31-3.49-20.88-22.81s9.27-27.89,19.47-28.07c9.49-.17,15.06,5.82,15.79,6.65v37.43c-4.43,4.57-8.58,6.25-14.38,6.79Z"/>
      <path class="cls-1" d="m296.79,85.03h4.68c.05-.71.09-1.43.09-2.16,0-16.13-13.08-29.21-29.21-29.21s-29.21,13.08-29.21,29.21,13.08,29.21,29.21,29.21c12.32,0,22.85-7.63,27.14-18.42l-4.72.13c-2.57,8.79-15.82,14.34-22.42,14.34-8.6,0-15.54-9.94-16.16-23.1h40.6Zm-40.61-3.75c.61-13.18,7.65-23.59,16.25-23.59s15.64,10.4,16.25,23.59h-32.51Z"/>
    </g>
    <g>
      <path class="cls-2" d="m432.18,53.65c-16.13,0-29.21,13.08-29.21,29.21s13.08,29.21,29.21,29.21,29.21-13.08,29.21-29.21-13.08-29.21-29.21-29.21Zm.09,54.91c-9.01,0-16.31-11.39-16.31-25.44s7.3-25.44,16.31-25.44,16.31,11.39,16.31,25.44-7.3,25.44-16.31,25.44Z"/>
      <path class="cls-2" d="m586.4,53.65c-16.13,0-29.21,13.08-29.21,29.21s13.08,29.21,29.21,29.21,29.21-13.08,29.21-29.21-13.08-29.21-29.21-29.21Zm.09,54.91c-9.01,0-16.31-11.39-16.31-25.44s7.3-25.44,16.31-25.44,16.31,11.39,16.31,25.44-7.3,25.44-16.31,25.44Z"/>
      <rect class="cls-2" x="383.36" y="27.46" width="12.98" height="82.85"/>
      <path class="cls-2" d="m361.48,64.84s11.18-4.6,10-17.63c-1.27-13.94-11.16-17.43-15.36-18.28-.92-.19-1.85-.27-2.78-.27h-38.56v81.66h43.14c1.38,0,2.75-.27,4.01-.83,14.69-6.5,14.69-17,14.69-25.57,0-11.41-15.13-19.08-15.13-19.08Zm-13.55-32.5c2.22.31,12,7.38,10,18.29-1.53,8.33-7.2,11.46-9.77,12.47-.71.28-1.47.42-2.23.42h-17.51v-31.19c3.84-.05,19.01-.06,19.52.01Zm-1.54,73.94h-17.97v-38.55c2.15-.01,19.41-.07,19.91,0,1.22.17,14.25,4.72,14.47,18.55.18,11.28-6.91,16.58-11.14,18.74-1.63.83-3.44,1.26-5.27,1.26Z"/>
      <path class="cls-2" d="m552.1,61.02l-2.37,2.89s-17.76-12.76-27.5-1.84c-1.31,1.46-1.25,5.53,1.25,7.92,6.78,6.5,24.4,12.47,27.69,19.62,9.81,18.23-19.66,31.37-39.41,14.82l2.3-2.37c12.34,10.83,43.44,4.74,20.07-10.59-.46-.3-21.99-10.28-23.31-19.05-1.32-8.77,6.39-19.07,22.45-18.33,11.4.53,18.81,6.93,18.81,6.93Z"/>
      <path class="cls-2" d="m505.41,61.02l-2.37,2.89s-17.76-12.76-27.5-1.84c-1.31,1.46-1.25,5.53,1.25,7.92,6.78,6.5,24.4,12.47,27.69,19.62,9.81,18.23-19.66,31.37-39.41,14.82l2.3-2.37c12.34,10.83,43.44,4.74,20.07-10.59-.46-.3-21.99-10.28-23.31-19.05-1.32-8.77,6.39-19.07,22.45-18.33,11.4.53,18.81,6.93,18.81,6.93Z"/>
      <path class="cls-2" d="m693.73,54.05h-6.02c-7.5,0-13.77,4.89-15.5,11.48-2.34-6.68-8.75-11.48-16.32-11.48h-5.79c-7.24,0-13.29,3.74-14.92,11.06v-9.36h-13.34v54.47h12.89v.13h.44v-38.2c0-7.8,6.41-14.12,14.32-14.12,6.14,0,11.12,4.91,11.12,10.96v41.36h12.54v-39.27c0-.71-.06-1.41-.14-2.1,2.16-4.77,8.18-10.95,14.07-10.95,6.39,0,11.57,4.91,11.57,10.96v41.36h13.05v-39.27c0-9.41-8.05-17.04-17.98-17.04Z"/>
    </g>
  </g>
  <g>
    <path class="cls-1" d="m98.28,177.51h-17.63l-3.96,11.01h-5.72l16.07-42.09h4.86l16.1,42.09h-5.7l-4.02-11.01Zm-15.96-4.54h14.31l-7.17-19.69-7.14,19.69Z"/>
    <path class="cls-1" d="m191.66,175.17c-.52,4.45-2.16,7.89-4.93,10.31s-6.44,3.63-11.03,3.63c-4.97,0-8.96-1.78-11.95-5.35-3-3.56-4.5-8.33-4.5-14.31v-4.05c0-3.91.7-7.35,2.1-10.32,1.4-2.97,3.38-5.25,5.94-6.84,2.56-1.59,5.53-2.38,8.9-2.38,4.47,0,8.06,1.25,10.75,3.74,2.7,2.5,4.27,5.95,4.71,10.36h-5.58c-.48-3.36-1.53-5.8-3.14-7.31-1.61-1.51-3.86-2.26-6.75-2.26-3.55,0-6.33,1.31-8.34,3.94-2.01,2.62-3.02,6.36-3.02,11.2v4.08c0,4.57.95,8.21,2.86,10.91,1.91,2.7,4.58,4.05,8.01,4.05,3.08,0,5.45-.7,7.1-2.1s2.74-3.83,3.28-7.3h5.58Z"/>
    <path class="cls-1" d="m269.85,177.51h-17.63l-3.96,11.01h-5.72l16.07-42.09h4.86l16.1,42.09h-5.7l-4.02-11.01Zm-15.96-4.54h14.31l-7.17-19.69-7.14,19.69Z"/>
    <path class="cls-1" d="m332.59,188.53v-42.09h11.88c3.66,0,6.9.81,9.71,2.43,2.81,1.62,4.99,3.92,6.52,6.91s2.31,6.42,2.33,10.29v2.69c0,3.97-.77,7.45-2.3,10.44s-3.72,5.28-6.56,6.88-6.15,2.42-9.93,2.46h-11.65Zm5.55-37.55v33.01h5.84c4.28,0,7.61-1.33,9.99-3.99,2.38-2.66,3.57-6.45,3.57-11.37v-2.46c0-4.78-1.12-8.5-3.37-11.15s-5.43-4-9.55-4.04h-6.48Z"/>
    <path class="cls-1" d="m442.57,169.07h-18.24v14.92h21.19v4.54h-26.74v-42.09h26.45v4.54h-20.9v13.56h18.24v4.54Z"/>
    <path class="cls-1" d="m506.97,146.44l13.76,34.34,13.76-34.34h7.2v42.09h-5.55v-16.39l.52-17.69-13.82,34.08h-4.25l-13.79-34,.55,17.61v16.39h-5.55v-42.09h7.17Z"/>
    <path class="cls-1" d="m604.81,188.53h-5.55v-42.09h5.55v42.09Z"/>
    <path class="cls-1" d="m686.08,177.51h-17.63l-3.96,11.01h-5.72l16.07-42.09h4.86l16.1,42.09h-5.7l-4.02-11.01Zm-15.96-4.54h14.31l-7.17-19.69-7.14,19.69Z"/>
  </g>
</svg>